<svg xmlns="http://www.w3.org/2000/svg" viewBox="0 0 900 650" role="img" aria-labelledby="title desc">
  <title id="title">Illustration of mapo tofu</title>
  <desc id="desc">A stylized bowl of spicy mapo tofu with chili oil, tofu cubes, and herbs.</desc>
  <defs>
    <linearGradient id="bg" x1="0" x2="1" y1="0" y2="1">
      <stop offset="0" stop-color="#ffe7b5"/>
      <stop offset="1" stop-color="#ffc7a0"/>
    </linearGradient>
    <linearGradient id="bowl" x1="0" x2="0" y1="0" y2="1">
      <stop offset="0" stop-color="#ffffff"/>
      <stop offset="1" stop-color="#f2d7bd"/>
    </linearGradient>
    <filter id="shadow" x="-20%" y="-20%" width="140%" height="150%">
      <feDropShadow dx="0" dy="28" stdDeviation="24" flood-color="#6f2f17" flood-opacity="0.28"/>
    </filter>
  </defs>
  <rect width="900" height="650" fill="url(#bg)"/>
  <circle cx="170" cy="120" r="75" fill="#fff6e7" opacity="0.45"/>
  <circle cx="760" cy="130" r="115" fill="#d94f2b" opacity="0.15"/>
  <circle cx="720" cy="510" r="95" fill="#2e8f76" opacity="0.14"/>
  <g filter="url(#shadow)">
    <ellipse cx="450" cy="430" rx="310" ry="122" fill="#2a1811" opacity="0.16"/>
    <path d="M160 305c23 165 136 255 290 255s267-90 290-255H160z" fill="url(#bowl)"/>
    <ellipse cx="450" cy="305" rx="305" ry="105" fill="#fffaf0"/>
    <ellipse cx="450" cy="304" rx="260" ry="77" fill="#b93821"/>
    <path d="M225 300c65-46 386-69 485 9-49 70-410 85-485-9z" fill="#d94f2b"/>
    <ellipse cx="525" cy="291" rx="104" ry="27" fill="#ff8d4f" opacity="0.35"/>
    <g fill="#ffe7b5" stroke="#f4cf8b" stroke-width="4">
      <rect x="253" y="246" width="78" height="58" rx="12" transform="rotate(-9 292 275)"/>
      <rect x="368" y="237" width="86" height="64" rx="13" transform="rotate(6 411 269)"/>
      <rect x="483" y="252" width="82" height="60" rx="12" transform="rotate(-5 524 282)"/>
      <rect x="594" y="276" width="76" height="56" rx="12" transform="rotate(11 632 304)"/>
      <rect x="305" y="317" width="92" height="64" rx="13" transform="rotate(7 351 349)"/>
      <rect x="438" y="324" width="92" height="67" rx="14" transform="rotate(-8 484 357)"/>
      <rect x="560" y="333" width="78" height="58" rx="13" transform="rotate(4 599 362)"/>
    </g>
    <g fill="#1f7a61">
      <ellipse cx="290" cy="233" rx="28" ry="9" transform="rotate(-22 290 233)"/>
      <ellipse cx="426" cy="223" rx="31" ry="9" transform="rotate(19 426 223)"/>
      <ellipse cx="618" cy="258" rx="34" ry="10" transform="rotate(-18 618 258)"/>
      <ellipse cx="520" cy="412" rx="30" ry="9" transform="rotate(15 520 412)"/>
      <ellipse cx="360" cy="398" rx="28" ry="9" transform="rotate(-12 360 398)"/>
    </g>
    <g fill="#2a1811" opacity="0.65">
      <circle cx="342" cy="284" r="7"/>
      <circle cx="466" cy="286" r="6"/>
      <circle cx="548" cy="309" r="7"/>
      <circle cx="621" cy="343" r="6"/>
      <circle cx="394" cy="370" r="5"/>
    </g>
    <path d="M181 325c74 78 461 109 546 0" fill="none" stroke="#e8c6a3" stroke-width="8" opacity="0.7"/>
  </g>
</svg>
